<?xml version="1.0" encoding="UTF-8"?>
<svg id="Layer_2" data-name="Layer 2" xmlns="http://www.w3.org/2000/svg" viewBox="0 0 697.34 356.89">
  <defs>
    <style>
      .cls-1 {
        fill: #0f123e;
      }

      .cls-1, .cls-2, .cls-3, .cls-4 {
        stroke-width: 0px;
      }

      .cls-2 {
        fill: #fdbf14;
      }

      .cls-3 {
        fill: #41aee3;
      }

      .cls-4 {
        fill: #c71a8f;
      }
    </style>
  </defs>
  <g id="Capa_1" data-name="Capa 1">
    <g>
      <path class="cls-1" d="M196.42.16c3.74.37,7.4,1.37,10.7,3.15,12.09,6.5,16.93,22.18,14.48,35.69-2.45,13.51-10.7,25.2-19.48,35.76-2.1,2.52-4.3,5.07-7.17,6.67s-6.56,2.11-9.4.48c-3.01-1.73-4.4-5.5-4.08-8.96.32-3.45,2.06-6.62,4.1-9.42,6.78-9.33,17.31-14.51,23.28-24.42,1.61-2.68,2.97-5.47,3.72-8.53.68-2.75.99-5.5.31-8.32-1.13-4.72-4.04-7.55-8.78-8.62-3.36-.76-6.49-.07-9.56,1.22-2.24.94-4.24,2.29-6.12,3.81-4.7,3.79-8.76,8.19-12.57,12.85-6.2,7.57-11.28,15.85-15.63,24.59-5.08,10.2-9.32,20.72-12.12,31.78-1.81,7.13-2.82,14.36-2.56,21.74.11,3.04.5,6.04,1.25,9.01,2.08,8.24,7.35,13.32,15.42,15.64,4.52,1.3,9.08,1.24,13.65.31,4.91-.99,9.58-2.68,14.02-4.98,14.96-7.74,26.61-18.84,34.33-33.91,1.81-3.54,3.39-7.18,4.63-10.95.38-1.16.4-1.21-.62-1.91-10.31-7-10.48-23.18-3.27-32.46,3.25-4.19,8.01-7.31,13.25-8.12,6.43-1,13.2,1.75,16.65,7.35,1.53,2.48,2.42,5.21,2.91,8.08.36,2.08.46,4.18.47,6.28,0,.58.32.83.91.71.53-.11,1.05-.28,1.56-.44,6.57-2.04,13.47-4.3,20.38-4.64,1.77-.09,3.6-.02,5.21.71,3.32,1.51,4.87,5.54,4.59,9.17-.27,3.63-1.98,6.98-3.62,10.23-9.94,19.64-18.24,39.8-23.91,61.1-2.24,8.42-4.52,16.83-7.49,25.04-1.88,5.2-4.02,10.29-6.64,15.17-2.07,3.86-4.49,7.48-7.51,10.67-3.32,3.5-7.17,6.17-11.78,7.75-2.65.91-5.36,1.16-8.07.78-4.78-.68-7.54-3.97-8.54-8.16-.63-2.65-.44-5.26.24-7.86.8-3.04,2.19-5.82,3.74-8.53,3.4-5.95,6.81-11.89,10.22-17.83,12.62-21.96,26.28-43.62,37.81-66.18,1.11-2.18,2.15-4.95.69-6.92-1.01-1.36-2.86-1.75-4.55-1.84-23.07-1.22-30.68,24.87-39.61,40.78-6.6,11.76-15.03,22.61-25.56,31.12-16.53,13.38-38.82,20.57-59.57,15.91-7.65-1.72-15.09-5.09-20.57-10.7-5.86-6.01-9.09-14.18-10.58-22.44-4-22.09,3.46-44.64,13.03-64.94,8.45-17.94,18.73-35.19,32.17-49.78,10.01-10.86,22.49-20.5,37.12-22.5,2.8-.38,5.67-.47,8.49-.19ZM236.15,73.67c.7-.06,1.32-.13,1.94-.16,1.55-.09,2.62-.83,3.21-2.28.7-1.72,1.43-3.44,1.86-5.26.32-1.35.63-2.72.52-4.14-.2-2.68-2.35-4.29-4.98-3.89-3.91.59-9.16,5.35-8.1,11.61.34,2.03,1.61,3.32,3.55,3.9.66.2,1.38.16,2,.22Z"/>
      <path class="cls-1" d="M620.98,258.86c-3.19,1.01-6.3,2.2-9.4,3.45-.5.2-1,.44-1.48.69-1.3.66-2.1,1.65-2.6,3.1-4.32,12.72-12.22,25.38-22.1,34.54-10.63,9.85-26.86,16.24-40.87,9.82-7.47-3.42-11.4-9.36-12.22-17.46-.57-5.58.31-11.02,1.65-16.41,2.59-10.47,7.14-20.05,13-29.05,3.92-6.02,8.29-11.69,13.45-16.71,5.18-5.04,10.92-9.25,17.63-12.05,4.59-1.91,9.36-2.84,14.35-2.62,2.83.13,5.55.73,8.13,1.92,3.82,1.76,6.66,4.53,8.49,8.33,1.91,3.98,2.91,8.2,3.28,12.58.31,3.65.61,7.3.07,10.96-.03.22.03.46.05.67.42.23.75.03,1.11-.13,4.06-1.79,7.48-4.45,10.51-7.64,4.24-4.46,7.31-9.67,9.76-15.27,1.84-4.21,3.29-8.56,4.71-12.93,1.42-4.36,2.83-8.73,4.27-13.09.37-1.11.78-2.2,1.28-3.25.4-.84.91-1.64,1.47-2.37,1.34-1.73,3.12-2.49,5.32-2.29,1.47.13,2.47.86,3.05,2.18.38.87.49,1.79.52,2.74.08,2.2-.32,4.35-.63,6.5-.77,5.47-1.84,10.89-3.38,16.21-.07.22-.14.45-.18.68-.07.38-.24.83.06,1.11.33.31.7-.01,1.03-.18,2.16-1.08,4.3-2.19,6.48-3.2,3.9-1.8,7.94-3.16,12.22-3.76,4.96-.69,9.79-.2,14.43,1.73,2.73,1.13,4.96,2.94,6.66,5.34,8.54,12.07,6.96,28.39,3.08,41.84-3.61,12.5-9.29,24.29-17.62,34.35-3.24,3.92-6.86,7.46-11.06,10.35-3.1,2.13-6.41,3.82-10.15,4.54-3.64.7-7.14.33-10.44-1.39-5.64-2.93-8.94-7.59-10.1-13.8-1.38-7.36-.04-14.24,3.62-20.71,1.25-2.21,2.95-4.01,5.07-5.4,3.28-2.15,6.84-2.52,10.51-1.31,3.2,1.05,5.17,3.37,5.97,6.64.24.98.32,2,.52,2.99.64,3.32,2.97,4.35,5.83,2.52,1.13-.72,2.12-1.59,2.99-2.59,6.88-7.91,11.62-16.89,13.63-27.24.64-3.3,1.07-6.61.92-9.98-.12-2.76-.72-5.4-1.87-7.9-2.33-5.05-6.28-7.75-11.85-8.14-4.02-.28-7.71.69-11.15,2.74-3.47,2.07-6.29,4.84-8.73,8.01-3.43,4.47-6.18,9.34-8.58,14.43-3.32,7.06-5.83,14.43-7.89,21.94-2.1,7.65-4.05,15.35-6.08,23.02-2.19,8.28-4.61,16.49-7.95,24.39-1.97,4.67-4.2,9.2-6.98,13.45-1.84,2.82-3.93,5.42-6.4,7.72-2.6,2.42-5.6,4.14-8.9,5.46-1.93.78-3.85,1.05-5.89.97-2.86-.12-5.23-1.34-7.19-3.31-1.88-1.88-2.38-4.32-2.26-6.9.14-2.93,1.03-5.66,2.32-8.26,2.08-4.18,4.19-8.35,6.32-12.5,9.85-19.17,19.72-38.34,29.58-57.51.35-.69.84-1.32.88-2.13.09-.1.28-.25.26-.29-.13-.24-.36-.21-.58-.11ZM557.74,256.41c-.11.18-.26.36-.35.57-1.89,4.58-3.48,9.38-4.11,14.31-.97,7.59,1.4,17.04,9.51,19.74,4.24,1.41,8.94.28,13-1.6,9.33-4.32,15.79-12.25,19.93-21.48.23-.5.42-1.01.23-1.6-1.22-.39-3.05.12-4.34.16-1.73.06-3.46.06-5.19-.01-3.45-.14-6.9-.57-10.27-1.34-3.39-.77-6.7-1.9-9.83-3.42-1.64-.79-3.22-1.69-4.74-2.69-.85-.56-2.85-2.79-3.85-2.66ZM601.69,246.02c.03-5.79-2.32-11.89-6.43-15.24-4.22-3.44-9.88-3.59-14.83-1.71-2.37.9-4.55,2.42-5.96,4.53-1.87,2.79-2.24,6.39-1.64,9.7,1,5.56,4.67,9.83,10.18,11.2,4.27,1.06,8.61,1.31,12.99,1.09.78-.04,1.55-.11,2.33-.18.4-.03.75-.17.98-.54,1.6-2.5,2.36-5.63,2.38-8.86Z"/>
      <path class="cls-2" d="M0,320c.01-5.38,1.13-12.45,6.91-12.25,2.88.1,5.1,2.69,4.61,5.55-1.15,6.78-1.76,13.68.8,20.25,2.76,7.07,8.22,11.11,15.04,13.77,2.34.91,3.74,3.56,3.02,6.01-.61,2.07-2.71,3.61-4.87,3.55-.97-.03-1.92-.34-2.83-.68-13.95-5.3-21.35-18.1-22.54-32.53-.08-1.01-.15-2.28-.15-3.67Z"/>
      <path class="cls-1" d="M100.79,192.32c.04,9.68-1.9,19.51-4.61,28.48-2.78,9.19-6.58,17.96-10.8,26.56-4.12,8.38-8.33,16.72-12.48,25.08-2.36,4.76-4.71,9.69-6.53,14.68-1.61,4.39-2.54,9.19-1.51,13.75,1.04,4.56,4.38,8.8,8.93,9.86,3.11.73,6.43-.08,9.22-1.64,3.95-2.23,6.92-5.9,9.04-9.91,3.93-7.44,5.64-16.02,8.04-24.03.98-3.29,2.28-6.45,3.94-9.47,1.25-2.27,2.75-4.34,4.66-6.1,1.27-1.17,2.67-2.12,4.28-2.79,4.29-1.77,8.18-.35,10.7,2.31,2.51,2.66,3.68,5.91,4.01,9.5,1.18,12.87-12.3,22.4-14.25,34.7-.83,5.24.84,11.46,5.66,13.68,2.82,1.3,6.19.95,9.02-.32,5.75-2.58,10.17-8.2,13.26-13.49,2.92-5,5.06-10.34,6.91-15.8,2.63-7.75,4.5-15.7,6.09-23.72,1.76-8.86,3.38-17.74,5.19-26.58,1.88-9.16,4.3-18.17,7.92-26.82,2.69-6.42,6.01-12.48,10.27-18,3.81-4.95,8.36-9.18,13.87-12.18,1.35-.73,2.79-1.4,4.32-1.44,2.57-.06,4.95,1.76,6.05,4.09s1.11,5.05.58,7.57c-1.86,8.87-9.19,14.33-14.61,20.99-5.74,7.05-9.96,15.2-13.01,23.74-2.57,7.2-4.5,14.57-6.06,22.04-1.76,8.46-3.38,16.94-5.16,25.4-1.9,9-4.34,17.84-7.98,26.31-3.64,8.44-8.43,16.14-14.82,22.79-3.48,3.62-7.33,6.75-11.78,9.11-4.05,2.15-8.34,3.52-12.93,3.57-8.59.08-15.71-3.31-21.53-9.55-2.03-2.18-3.61-4.68-4.85-7.39-.43-.93-.56-.95-1.32-.38-1.31.97-2.6,1.99-3.94,2.92-11.34,7.8-26.02,12.91-39.88,12.17-4.28-.23-8.61-1.08-12.34-3.2-8.31-4.72-12.16-15.02-11.84-24.58.34-10.19,4.57-19.75,8.27-29.07,3.75-9.46,9.42-18.46,14.97-26.94,5.25-8.01,10.67-15.91,15.96-23.89,4.78-7.21,9.28-14.58,13.09-22.35,3.89-7.92,7-16.12,8.77-24.8.74-3.59,1.29-7.21,1.42-10.87.07-2.03-.08-4.05-.68-6.01-.63-2.05-1.69-3.85-3.32-5.27-2.85-2.48-6.3-2.74-9.48-.7-3.33,2.14-5.1,5.72-5.8,9.53-.57,3.08-.53,6.24-.73,9.36-.67,10.45-4.08,20.83-10.42,29.16-2.83,3.72-6.42,7.13-10.91,8.44-4.49,1.31-9.99-.02-12.42-4.02-1.93-3.17-1.59-7.19-.99-10.85,3.34-20.48,15.87-49.13,38.59-53.96,6.25-1.33,12.07-.33,17.44,3.13,3.66,2.36,6.53,5.52,8.88,9.16,5.46,8.45,7.57,18.17,7.61,28.06Z"/>
      <path class="cls-1" d="M431.33,95.78c.99.32,2,.18,2.99.1,4.97-.4,9.93-.9,14.91-1.21,1.73-.11,2.66-.83,3.3-2.39,6.94-16.8,12.71-33.91,18.58-51.16.9-2.65,1.87-5.4,3.88-7.35.84-.81,1.87-1.46,3.02-1.65,2.55-.42,5.02,1.62,5.88,4.06.85,2.44.45,5.14-.2,7.65-2.27,8.76-4.19,17.57-6.75,26.28-1.23,4.18-2.46,8.35-3.69,12.53-.54,1.82-4.05,9.34-2.21,10.61.82.56,1.9.48,2.89.39,6.65-.63,13.35-.58,20.04-.43,13.66.3,27.32.99,40.95,2.09,6.54.53,13.1,1.15,19.46,2.75,2.26.57,4.53,1.29,6.4,2.67s3.29,3.56,3.23,5.89c-.1,3.99-4.2,6.63-8.02,7.78-12.27,3.7-25.34-.37-37.76-3.51-16.7-4.22-33.1-5.62-50.22-6.43-3.28-.15-6.86,17.79-7.77,20.85-2.55,8.58-4.98,17.19-7.28,25.84-2.6,9.77-5.07,19.69-9.83,28.61-4.76,8.92-12.14,16.88-21.72,20.1-2.41.81-4.99,1.31-7.51.96s-5-1.63-6.37-3.77c-1.68-2.63-1.48-6.02-.91-9.09,2.58-13.83,11.06-25.46,17.72-37.54,7.45-13.52,14.38-27.45,20.81-41.49.32-.7.66-1.4.96-2.12.93-2.21-3.48-1.09-4.53-1.01-3.21.24-6.42.48-9.63.72-2.54.19-3.9.66-4.84,3.11-6.92,18-16.84,33.83-27.12,49.99-1.24,1.94-4.59,6.1-6.77,2.66-.77-1.22-.78-2.74-.98-4.16-.03-.2-.06-.41-.18-.57-.56-.76-8.66,3.68-9.87,4.11-4.89,1.72-9.91,2.71-15.11,2.56-3.53-.1-6.96-.74-10.23-2.13-6.01-2.56-9.34-7.25-10.7-13.51-.64-2.96-.32-5.9.2-8.82,2.46-14,12.11-25.69,24.55-32.25,11.15-5.88,23.5-7.08,35.66-9.08.31-.05.62-.07.93-.14.59-.12.95-.5,1.09-1.08.06-.23.13-.45.15-.68.49-4.77-.11-9.35-2.74-13.47-3.03-4.74-7.34-7.08-13.01-6.56-2.49.23-4.89.92-7.15,2.04-1.39.69-2.77,1.41-4.12,2.18-3.85,2.21-7.67,4.46-11.52,6.66-.87.5-1.8.91-2.73,1.31-.35.15-.75.23-1.12.25-.86.04-1.46-.57-1.49-1.43-.18-4.32,4.86-9.91,7.53-12.89,3.46-3.86,7.6-7.12,12.19-9.54,7.99-4.22,17.31-5.9,26.28-4.72,6.26.82,12.63,3.22,16.59,8.13,5.45,6.76,5.44,16.58,4.16,24.73-.13.84-.35,1.67-.22,2.59ZM373.94,141.45c.83.05,1.68-.01,2.48-.15,6.14-1.03,11.23-5.3,15.42-9.92,3.56-3.92,6.71-8.2,9.39-12.76,1.15-1.96,4.98-8.56.46-8-7.75.96-15.21,1.85-21.92,6.25-5.84,3.83-10.38,9.91-11.44,16.82-.29,1.89-.28,3.96.83,5.52,1.07,1.5,2.89,2.14,4.78,2.24Z"/>
      <path class="cls-1" d="M248.51,251.12c6.14-1.52,10.94-4.85,15.31-8.96-.48-.8-1.29-.93-1.96-1.27-3.93-1.98-6.81-4.96-8.15-9.18-2.03-6.39-1.57-12.61,1.79-18.49,1.64-2.87,3.82-5.32,6.47-7.3,5.77-4.32,11.94-4.4,18.27-1.41,2.62,1.24,4.41,3.41,5.65,6.02,1.47,3.07,2.09,6.34,2.2,9.72.03,1.07-.17,2.17.28,3.37,3.39-.93,6.81-1.72,10.17-2.78s7.01-2.31,10.7-2.46c1.92-.08,3.92.16,5.56,1.16,2.47,1.5,3.73,4.52,3.73,7.41,0,2.89-1.06,5.68-2.35,8.26-4.37,8.75-8.6,17.54-12.42,26.55-4.47,10.55-7.98,21.42-10.89,32.5-2.3,8.73-4.7,17.42-7.94,25.87-1.93,5.02-4.15,9.9-7,14.48-1.99,3.19-4.31,6.1-7.15,8.59-3.16,2.78-6.75,4.72-10.9,5.52-2.16.42-4.32.49-6.48-.11-4.56-1.27-7.11-4.45-7.18-9.16-.06-3.89.88-7.57,2.69-11,1.13-2.13,2.33-4.23,3.53-6.32,6.71-11.67,13.47-23.32,20.41-34.86,4.09-6.8,7.79-13.83,11.53-20.83,3.01-5.63,6.14-11.19,9.52-16.61.87-1.4,1.6-2.84,1.94-4.47.49-2.42-.49-4.31-2.78-5.26-1.79-.74-3.66-.76-5.52-.44-3.95.68-7.66,2.05-10.99,4.31-2.64,1.79-5.3,3.58-7.81,5.54-6.3,4.91-13.13,8.1-20.5,11.02-.71.28-1.44.57-2,1.09-.81.75-1.16,1.87-1.49,2.92-3.96,12.69-9.96,25.09-19.68,34.16-9.72,9.06-23.65,14.32-36.59,11.27-4.23-1-8.34-2.9-11.36-6.03-6.25-6.45-6.66-16.61-4.95-25.43,2.2-11.37,7.21-22.03,13.25-31.91,5.46-8.93,11.9-17.45,20.32-23.67,8.42-6.21,19.03-9.95,29.4-8.54,3.21.44,6.44,1.4,9,3.4,4.2,3.29,5.95,8.9,6.13,14.23.2,5.87-.88,11.9-1.75,17.69-.06.37,0,.77,0,1.4ZM235.36,264.06c-1.08-.6-3.39.15-4.6.23-1.59.11-3.19.13-4.79.08-3.28-.1-6.54-.52-9.74-1.25-6.34-1.45-13.71-4.07-18.35-8.75-.52-.53-.88-.42-1.18.35-1.77,4.41-3.38,8.97-4.07,13.69-.63,4.3-.39,8.82,1.42,12.77s5.34,7.24,9.6,8.08c2.49.49,5.09.14,7.54-.55,5.12-1.43,9.78-4.31,13.61-7.98,4.49-4.3,7.85-9.66,10.35-15.32.19-.43.35-.87.21-1.35ZM233.18,253.55c1.8.07,3.58-.15,5.36-.4.76-.11,1.1-.51,1.26-1.16,1.49-5.86,1.88-12.35-.84-17.93-1.99-4.08-5.75-7.43-10.21-8.27-2.62-.5-5.34-.14-7.88.67-2.21.7-4.35,1.78-5.94,3.45-2.85,2.99-3.58,7.55-2.72,11.58.56,2.62,1.74,5.12,3.56,7.08,4.32,4.67,11.53,4.65,17.42,4.97ZM267.96,231.65c2.69-.05,4.14-1.05,5.11-3.7.56-1.52,1.01-3.07,1.35-4.65.34-1.56.53-3.31-.36-4.64-.8-1.18-2.33-1.72-3.75-1.59s-2.73.84-3.85,1.72c-2.74,2.13-4.64,5.7-3.84,9.08.24,1,.72,1.96,1.5,2.64.91.79,2.14,1.12,3.34,1.14.17,0,.34,0,.5,0Z"/>
      <path class="cls-1" d="M530.17,166.04c.75-.5,1.11-1.3,1.56-2,18.97-29.56,37.43-59.13,59.97-86.2,12.84-15.42,26.3-31.34,41.81-44.17,10.62-8.79,24.75-18.28,39.01-18.58,2.75-.06,5.43.32,8.04,1.21,7.69,2.6,9.96,12.29,8.48,19.49-1.3,6.3-5.14,11.85-9.78,16.31s-10.1,7.96-15.46,11.52c-26.25,17.44-51.2,36.86-75.71,56.64-12.73,10.27-23.87,22.44-33.47,35.67-9.47,13.06-16.01,28.64-27.72,39.93-.96.93-1.96,1.82-3,2.67-1.61,1.32-3.57,2.63-5.61,2.22-2.13-.42-3.48-2.57-4.09-4.65-1.48-5.02-.22-10.38.77-15.52,2.29-11.82,3.14-23.92,2.52-35.94-.25-4.81-.72-9.7.34-14.4.61-2.68,2.06-5.56,4.71-6.26,1.99-.52,4.16.39,5.59,1.87s2.25,3.45,2.88,5.41c1.86,5.85,1.98,11.86,1.58,17.93-.34,5.29-1.11,10.52-2.47,15.66-.1.37-.2.74.04,1.2Z"/>
      <path class="cls-1" d="M497.75,215.41c1.44-.34,2.71-.62,3.98-.95,4.1-1.1,8.27-1.45,12.5-1.16,6.36.43,13.16,3.83,15.93,12.03.96,2.83,1.47,5.73,1.61,8.69.28,5.69-.08,11.36-.64,17.03-.91,9.15-2.51,18.19-4.39,27.19-1.3,6.2-3.15,12.2-6.13,17.81-2.78,5.24-6.46,9.71-11.33,13.15-2.7,1.91-5.62,3.34-8.86,4.01-2.54.53-5.09.61-7.6-.29-2.99-1.07-4.75-3.09-5.16-6.3-.25-1.98.04-3.88.48-5.78,1.3-5.56,3.41-10.82,6.11-15.85,3.88-7.2,8.08-14.21,12.22-21.26,2.64-4.5,5.36-8.95,7.43-13.76,1.85-4.3,3.42-8.68,4.12-13.34.14-.93.2-1.86.1-2.79-.5-4.59-3.84-7.81-8.67-8.35-2.02-.23-4.05-.19-6.04.28-2.12.49-4.24.98-6.36,1.49-.53.13-1.03.34-1.55.49-1.41.39-2.21,1.33-2.61,2.72-.77,2.69-1.58,5.37-2.37,8.06-3.64,12.31-7.43,24.57-10.74,36.97-2.19,8.19-4.25,16.42-6.37,24.63-1.96,7.62-4.24,15.13-7.48,22.32-1.47,3.27-3.1,6.45-5.02,9.48-2.78,4.37-6.08,8.28-10.19,11.48-2.35,1.83-4.88,3.34-7.67,4.38-1.76.66-3.57,1.1-5.46,1.12-4.41.04-7.43-2.19-8.64-6.39-.79-2.76-.67-5.55-.24-8.34,1.03-6.67,3.4-12.92,6.09-19.06,2.5-5.71,5.47-11.18,8.32-16.71,18.05-35.05,33.61-71.17,46.41-108.47,2.4-7,4.51-14.07,6.31-21.24.93-3.7,2.1-7.33,3.68-10.81.71-1.56,1.54-3.06,2.46-4.5.64-1,1.46-1.84,2.42-2.51,1.39-.98,2.95-.93,4.35.08,1.04.75,1.74,1.76,2.17,2.97.75,2.1.94,4.24.59,6.44-.73,4.54-1.71,9.02-2.8,13.48-2.4,9.83-5.29,19.52-7.93,29.28-.9,3.3-1.8,6.6-2.73,9.9-.19.67-.42,1.32-.29,2.37Z"/>
      <path class="cls-1" d="M349.12,245.95c.83-.24,1.17-.99,1.62-1.61,5.84-7.78,11.04-16.06,16.99-23.75,2.6-3.36,5.7-6.47,9.56-8.25,3.86-1.78,8.6-2.04,12.26.12,1.14.67,2.2,1.62,2.66,2.87.7,1.9-.13,4.03-1.23,5.73-3.36,5.18-8.97,8.19-13.66,11.98-5.53,4.48-10.51,10-15.06,15.45-3.25,3.89-6.42,7.84-9.25,12.04-1.61,2.4-2.96,4.93-4.17,7.55-.84,1.82-.64,3.36.44,5.03,2.89,4.47,6.18,8.6,10.06,12.25,1.76,1.65,3.5,3.33,5.19,5.06,1.48,1.51,2.75,3.18,3.8,5.02,1.6,2.82,2.14,5.85,1.63,9.02-.78,4.88-4.5,8.4-9.7,8.35-9.38-.1-15.63-5.28-18.82-12.58-1.2-2.73-1.73-5.64-2.28-8.55-.54-2.84-.41-5.75-.86-8.6-.05-.29-.1-.58-.15-.87-.56.03-.66.44-.75.8-1.12,4.05-2.24,8.1-3.34,12.16-1.87,6.91-3.55,13.87-5.67,20.71-1.45,4.69-3.3,9.23-5.62,13.57-2.75,5.13-6.22,9.7-10.84,13.32-3.22,2.52-6.75,4.44-10.74,5.45-1.99.5-3.99.64-6.02.29-3.21-.55-5.46-2.78-6.11-5.96-.5-2.43-.24-4.82.27-7.19,1.14-5.29,3.17-10.25,5.78-14.98,3.2-5.79,6.45-11.56,9.67-17.33,8.77-15.72,16.78-31.86,24-48.34,3.63-8.28,7.06-16.66,10.28-25.11,2.3-6.02,4.29-12.16,6.25-18.3,1.72-5.4,2.94-11.27,6.18-16.01.83-1.21,1.85-2.38,3.23-2.87,1.9-.67,4.17.23,5.28,1.92.76,1.15,1.01,2.57,1.05,3.95.18,5.37-1.83,11.2-3.16,16.37-1.51,5.84-3.2,11.64-4.91,17.42-1.23,4.18-2.46,8.36-3.7,12.54-.13.44-.35.87-.13,1.35Z"/>
      <path class="cls-1" d="M338.2,59.73c7.45-.08,15.36,2.52,19.1,8.86,2.16,3.66,2.65,8.15,1.89,12.33-.76,4.18-2.7,8.07-5.1,11.57-11.25,16.43-32.41,24.61-51.8,24.57-2.71,0-2.81.19-3.4,2.74-2.17,9.4-1.35,24.71,10.25,27.47,4.73,1.13,9.69-.5,13.97-2.8,5.04-2.71,9.75-5.9,14.91-8.43.92-.45,1.81-.9,2.88-.79.65.07.99.4,1.01,1.04.02.96-.29,1.83-.67,2.69-7.5,16.77-25.39,26.38-43.63,25.08-7.69-.55-15.58-4.11-19.61-10.94-4.31-7.32-4.09-16.84-2.4-24.88,2.41-11.51,7.45-22.32,13.5-32.4,5.31-8.84,11.5-17.29,19.4-23.93,7.9-6.64,17.63-11.4,27.92-12.11.59-.04,1.19-.07,1.79-.07ZM333.25,71.98c-.75-.03-1.51.04-2.25.16-6.01.99-11.03,5.08-15.19,9.52-5.16,5.51-11.2,12.6-12.54,20.22-.14.8.16,1.12,1.05,1.03,7.86-.8,15.67-1.67,22.51-6,5.57-3.52,10.03-8.99,11.7-15.36.77-2.93.72-6.54-1.66-8.41-1.02-.8-2.3-1.13-3.61-1.17Z"/>
      <path class="cls-1" d="M605.45,166.76c-.09,2.35.03,4.69.45,6.97.88,4.72,3.48,9.36,7.78,11.48,4.49,2.22,9.94,1.3,14.52-.74,5.92-2.64,11.34-6.49,17.09-9.49.83-.43,1.63-.91,2.61-.91,4.63-.04-6.24,14.63-7.78,16.19-6.34,6.4-14.34,10.1-23.09,11.88-3.53.72-7.08,1.04-10.68.92-3.37-.11-6.66-.67-9.82-1.85-7.99-2.99-12.61-8.77-14.15-17.12-.89-4.82-.56-9.61.23-14.41,1.43-8.68,4.36-16.85,8.23-24.71,4.77-9.69,10.55-18.71,17.63-26.88,3.9-4.5,8.28-8.46,13.27-11.73,9.44-6.18,22.69-10.12,33.77-6.21,9.38,3.31,13.32,13.15,10.33,22.36-3.74,11.51-13.05,20.19-23.56,25.66-5.41,2.82-11.22,4.88-17.19,6.17-5.66,1.23-11.19,1.03-16.88,1.61-.83.08-1.45.54-1.61,1.45-.55,3.03-1.01,6.19-1.13,9.34ZM640.44,110.88c-.06,0-.12,0-.19,0-7.75-.06-14.42,6.47-18.99,11.99-3.67,4.44-9.23,10.31-9.99,16.21-.42,3.25,2.57,2.41,5.14,2.23,3.56-.25,7.09-.97,10.47-2.13,9.1-3.13,17.44-10.29,19.19-19.76.79-4.28-.82-8.4-5.63-8.54Z"/>
      <path class="cls-1" d="M404.49,313.66c-8.67.03-15.77-1.98-22.32-5.92-2.76-1.66-5.15-3.77-7.18-6.28-4.14-5.13-5.53-10.92-3.94-17.31,2.17-8.69,7.13-15.27,15.08-19.53,4.13-2.21,8.42-2.57,12.88-1.22,2.29.7,4.23,1.98,5.82,3.75,4,4.48,2.9,10.61-.12,13.87-1.2,1.3-2.67,2.11-4.4,2.48-1.29.28-2.57.6-3.87.88-.86.19-1.62.55-2.27,1.14-.79.72-.97,1.56-.54,2.54.47,1.1,1.26,1.96,2.13,2.75,1.95,1.79,4.34,2.74,6.86,3.31,4.45,1.02,8.66.25,12.58-2.06,8.15-4.79,9.61-17.22,3.6-24.3-2.31-2.72-5.52-4.52-8.8-5.94s-6.69-2.53-9.85-4.2c-5.37-2.83-9.08-7.19-10.42-13.15-1.38-6.08-.3-11.74,3.09-16.97,3.86-5.94,9.29-9.74,16-11.81,3.22-1,6.52-1.48,9.89-1.54,4.38-.08,8.72.22,12.93,1.55,2.84.9,5.49,2.18,7.74,4.19,7.15,6.38,4.03,15.24-.78,18.94-2.16,1.66-4.57,2.64-7.31,2.7-1.35.03-2.62-.24-3.76-1.02-2.07-1.42-2.65-3.71-1.49-5.94.67-1.28,1.65-2.26,2.88-2.99.94-.55,1.9-1.07,2.85-1.59,3.69-2.02.93-5.08-1.98-5.87-10.4-2.84-22.6,4.7-20.64,16.27.34,1.99,1.26,3.66,2.59,5.14,1.47,1.65,3.25,2.89,5.24,3.84,1.96.94,3.93,1.87,5.89,2.81,2.46,1.18,4.78,2.61,6.93,4.3,6.43,5.08,10.07,11.76,11.24,19.8,1.32,9.09-1.12,17.11-7.08,24.07-2.97,3.47-6.48,6.28-10.51,8.43-6.24,3.33-12.94,4.79-18.97,4.87Z"/>
      <path class="cls-1" d="M487.33,151.62c-.14,3.98-1.02,8.2-1.5,11.17-1.46,9.07-3.46,19.33-10.11,26.17-3,3.09-6.99,5.33-11.27,5.78-3.33.35-6.97-.51-9.18-3.03-2.02-2.31-2.54-5.6-2.29-8.66.6-7.45,5.07-13.99,9.86-19.73,2.66-3.19,5.47-6.25,7.98-9.56,2.46-3.25,3.95-7.62,6.95-10.36,1.7-1.55,4.26-2.52,6.31-1.46,3.2,1.66,3.37,6.59,3.26,9.68Z"/>
      <path class="cls-4" d="M170.13,124.08c-1.96.1-4.19-.24-6.43-.59-.61-.1-1.23-.25-1.81-.47-2.18-.87-3.29-3.05-2.91-5.52.27-1.72,2.05-3.9,4.65-3.81.7.02,1.4.08,2.09.2,5.95,1.07,11.62.19,17.06-2.38,4.64-2.19,8.61-5.29,12.18-8.93,2.52-2.57,4.8-5.32,6.7-8.38,1.14-1.83,2.73-2.71,4.89-2.53,2.95.24,5.02,3.21,4.18,6.06-.17.59-.44,1.18-.78,1.69-5.94,9.01-13.38,16.39-23.25,21.06-5.14,2.43-10.56,3.71-16.58,3.62Z"/>
      <path class="cls-2" d="M654.61,333.69c-6.78.02-12.53-1.65-17.83-4.9-.66-.4-1.32-.85-1.87-1.39-1.71-1.68-1.93-4.24-.58-6.19,1.34-1.94,3.83-2.66,5.99-1.68.49.22.93.55,1.4.83,7.91,4.64,15.91,4.87,23.96.41,4-2.22,7.29-5.29,10.24-8.75.51-.59.98-1.22,1.54-1.75,1.82-1.71,4.51-1.82,6.4-.31,1.93,1.55,2.41,4.12,1.16,6.3-.19.34-.43.65-.67.95-3.93,4.8-8.38,8.99-13.81,12.06-5.11,2.88-10.56,4.53-15.93,4.41Z"/>
      <path class="cls-4" d="M683.99,112.19c.04,3.53-.49,6.98-1.55,10.34-.61,1.94-1.89,3.18-3.94,3.53-3.33.58-6.2-2.32-5.59-5.64.11-.61.32-1.2.47-1.81.97-3.9,1.24-7.83.27-11.77-.87-3.57-2.92-6.32-5.96-8.34-2.84-1.89-6.03-2.84-9.34-3.46-.76-.14-1.54-.24-2.29-.43-2.52-.67-3.94-2.87-3.57-5.51.32-2.31,2.25-3.95,4.72-4,1.49-.03,2.94.29,4.38.6,4.14.9,8.07,2.33,11.61,4.7,6.43,4.32,9.82,10.44,10.67,18.05.08.69.09,1.4.11,2.1.02.54,0,1.09,0,1.63Z"/>
      <path class="cls-4" d="M401.67,332.86c-8.13-.12-15.44-1.75-22.26-5.35-.89-.47-1.8-.96-2.61-1.56-2.2-1.62-2.68-4.42-1.21-6.64,1.4-2.12,4.05-2.78,6.39-1.59.14.07.27.16.4.24,5.54,3.34,11.6,4.92,18.01,5.1,4.87.14,9.62-.71,14.19-2.43.87-.33,1.72-.74,2.61-1.01,2.87-.88,5.62.67,6.34,3.54.48,1.9-.33,3.99-2,5.1-.39.26-.82.45-1.25.63-4.92,2.07-10.02,3.4-15.36,3.76-1.24.08-2.49.16-3.28.2Z"/>
      <path class="cls-3" d="M558.21,329.18c-8.18-.19-15.62-1.86-22.53-5.62-.82-.45-1.65-.9-2.37-1.49-1.95-1.59-2.39-4.22-1.12-6.3,1.32-2.17,3.98-2.96,6.31-1.86.49.23.95.54,1.42.8,4.49,2.47,9.27,3.9,14.38,4.43,6.34.66,12.38-.43,18.26-2.71,1.02-.4,2.01-.79,3.15-.74,2.11.09,3.83,1.39,4.47,3.46.61,1.97-.13,4.2-1.84,5.35-.58.39-1.23.68-1.87.94-4.87,1.92-9.88,3.28-15.14,3.51-1.17.05-2.31.36-3.13.23Z"/>
      <path class="cls-3" d="M196.28,328.43c-7.92-.04-15.39-1.86-22.36-5.67-.75-.41-1.51-.84-2.16-1.38-2.63-2.16-2.36-6.17.56-7.92,1.58-.95,3.27-.91,4.9-.09,1.32.66,2.57,1.45,3.92,2.06,6.11,2.75,12.52,3.65,19.13,3.05,3.57-.32,7.04-1.22,10.38-2.57.58-.23,1.18-.41,1.74-.67,2.24-1.03,5.2.57,6.05,2.58,1.01,2.37.22,4.92-2.04,6.25-.6.35-1.26.62-1.91.87-5.86,2.25-11.9,3.59-18.21,3.49Z"/>
      <path class="cls-1" d="M515.15,80.24c-.8-.1-1.74-.12-2.64-.35-5.14-1.28-7.99-6.52-6.2-11.66,1.02-2.92,2.25-5.79,3.61-8.58,2.01-4.09,7.06-6.45,11.58-5.62.38.07.75.19,1.13.28,5.02,1.25,7.69,5.53,6.62,10.61-.13.61-.26,1.22-.5,1.79-.96,2.37-1.87,4.77-2.98,7.08-2.1,4.36-5.73,6.35-10.62,6.45Z"/>
      <path class="cls-2" d="M311.14,132.39c-1.25,0-2.5.11-3.73-.02-2.71-.3-4.47-2.45-4.35-5.15.11-2.34,1.91-4.28,4.24-4.54.46-.05.93-.04,1.4-.02,9.86.44,18.71-2.52,26.81-7.98,1.08-.73,2.19-1.15,3.48-1.09,1.99.08,3.43,1.08,4.19,2.86.75,1.76.59,3.53-.7,5.04-.5.58-1.12,1.08-1.76,1.52-6.2,4.19-12.97,7.06-20.31,8.52-1.83.36-3.68.63-5.54.81-1.23.12-2.49.02-3.73.02,0,.01,0,.03,0,.04Z"/>
      <path class="cls-3" d="M270.88,165.98c.02.61-.18,1.28-.37,1.96-1.08,3.83-2.59,7.5-4.11,11.16-2.06,4.96-4.48,9.76-6.88,14.56-.81,1.62-1.97,2.82-3.82,3.12-3.72.61-6.24-2.78-5.63-5.62.18-.85.55-1.6.94-2.37,2.92-5.76,5.7-11.59,8.02-17.62.78-2.03,1.44-4.11,2.13-6.17.33-.97.67-1.9,1.46-2.61,1.53-1.39,3.25-1.78,5.18-1.02,1.91.76,3.09,2.51,3.08,4.63Z"/>
      <path class="cls-3" d="M79.54,142.38c-.54-.07-1.41-.08-2.23-.29-5.86-1.49-7.78-6.43-7-11,.61-3.61,2.5-6.39,6.19-7.47,3.94-1.16,7.54-.49,10.56,2.46.85.83,1.46,1.82,1.83,2.94.89,2.77.87,5.53-.37,8.18-1.7,3.65-4.75,5.16-8.98,5.18Z"/>
      <path class="cls-3" d="M561.54,211.74c-.65-1.01-.71-2.21-1.08-3.31-.29-.88-.48-1.8-.78-2.68-1.1-3.24-3.3-5.4-6.53-6.47-1.62-.54-3.29-.93-4.93-1.38-.37-.1-.78-.13-1.03-.69,1.34-.52,2.74-.78,4.1-1.19,1.04-.31,2.12-.57,3.09-1.02,2.75-1.29,4.54-3.48,5.45-6.36.4-1.26.69-2.55,1.05-3.82.16-.57.26-1.18.73-1.61.49.28.52.77.63,1.22.45,1.81,1.02,3.58,1.7,5.32,1.19,3.06,3.41,4.93,6.5,5.86,1.41.42,2.83.83,4.24,1.25.22.07.46.12.66.22.11.06.24.21.24.32,0,.12-.12.32-.22.35-1.34.4-2.69.76-4.03,1.15-1.19.35-2.38.73-3.46,1.37-2.41,1.42-3.82,3.6-4.6,6.22-.4,1.34-.71,2.7-1.07,4.05-.12.44-.23.9-.67,1.21Z"/>
      <path class="cls-3" d="M162.51,196.37c-1.73.51-3.43,1.05-5.15,1.51-3.98,1.06-6.42,3.63-7.5,7.55-.39,1.42-.76,2.85-1.14,4.28-.1.38-.18.76-.71.9-.52-1.86-1.03-3.72-1.57-5.58-.44-1.51-1.13-2.88-2.21-4.06-1.35-1.47-2.96-2.5-4.88-3.04-1.86-.52-3.73-1.04-5.61-1.56.22-.45.58-.59.96-.69,1.35-.36,2.71-.7,4.06-1.06,4.01-1.07,6.66-3.53,7.79-7.58.42-1.5.87-2.98,1.33-4.47.06-.2.17-.47.48-.33.12.06.25.19.29.31.53,1.71,1.03,3.42,1.56,5.13,1.17,3.75,3.74,5.98,7.5,6.94,1.2.31,2.39.67,3.59,1.01.45.13.9.26,1.21.75Z"/>
      <path class="cls-2" d="M467.87,216.39c-.01,4.73-3.21,8.07-7.78,8.11-4.8.04-8.22-3.26-8.21-7.94,0-4.81,3.32-8.12,8.04-8.05,4.79.07,7.95,3.21,7.94,7.88Z"/>
      <path class="cls-3" d="M327.42,190.94c-3.93.15-7.81-2.43-7.91-7.39-.09-4.56,3.25-8.05,7.62-8,4.56.05,7.74,3.17,7.78,7.59.05,4.85-3.62,7.97-7.49,7.8Z"/>
      <path class="cls-3" d="M661.41,243.18c.91.05,1.85.04,2.75.35,2.49.86,4.8,2.67,5.05,6.86.22,3.63-2.09,6.83-5.56,7.66-2.21.53-4.35.22-6.31-.96-1.77-1.06-2.76-2.69-3.2-4.68-.83-3.78,1.24-7.65,4.72-8.86.83-.29,1.68-.32,2.54-.38Z"/>
      <path class="cls-2" d="M19.68,290.95c0,4.11-2.82,7.01-6.82,7.04-4.21.03-7.26-2.86-7.17-6.94.11-4.94,3.55-7.03,6.84-7.05,4.23-.02,7.16,2.8,7.15,6.94Z"/>
      <path class="cls-2" d="M258.92,268.89c4.17.03,7.01,2.77,7.05,6.79.04,4.18-2.88,7.24-6.96,7.14-4.65-.11-7.11-3.19-7.01-7.05.11-4.16,2.84-6.91,6.92-6.88Z"/>
    </g>
  </g>
</svg>