<?xml version="1.0" encoding="UTF-8"?>
<svg id="Layer_2" data-name="Layer 2" xmlns="http://www.w3.org/2000/svg" viewBox="0 0 396.11 252.39">
  <defs>
    <style>
      .cls-1 {
        fill: #0f123e;
      }

      .cls-1, .cls-2, .cls-3, .cls-4 {
        stroke-width: 0px;
      }

      .cls-2 {
        fill: #fdbf14;
      }

      .cls-5 {
        fill: none;
        stroke: #c71a8f;
        stroke-linecap: round;
        stroke-linejoin: round;
        stroke-width: 8.87px;
      }

      .cls-3 {
        fill: #41aee3;
      }

      .cls-4 {
        fill: #c71a8f;
      }
    </style>
  </defs>
  <g id="Capa_1" data-name="Capa 1">
    <g>
      <path class="cls-4" d="M89.78,177.09c-1.84.1-3.93-.22-6.02-.56-.57-.09-1.15-.23-1.69-.45-2.05-.81-3.09-2.86-2.73-5.18.25-1.62,1.92-3.65,4.36-3.57.65.02,1.32.07,1.96.19,5.58,1.01,10.89.18,15.99-2.23,4.35-2.05,8.07-4.96,11.42-8.37,2.36-2.4,4.5-4.99,6.28-7.85,1.07-1.72,2.55-2.54,4.58-2.37,2.77.23,4.71,3.01,3.92,5.68-.16.55-.41,1.1-.73,1.58-5.57,8.44-12.54,15.36-21.79,19.74-4.82,2.28-9.9,3.48-15.54,3.39Z"/>
      <path class="cls-3" d="M29.7,251.11c-7.75-1.84-14.67-5.32-20.63-10.63-.64-.57-1.29-1.16-1.81-1.84-2.09-2.71-.91-6.59,2.34-7.64,1.76-.57,3.41-.15,4.83,1.02,1.14.95,2.19,2,3.38,2.91,5.36,4.08,11.44,6.41,18.06,7.33,3.57.49,7.18.4,10.76-.16.62-.1,1.25-.14,1.86-.26,2.43-.5,4.97,1.73,5.35,3.9.45,2.55-.9,4.88-3.42,5.67-.67.21-1.37.32-2.07.42-6.25.88-12.48.82-18.64-.71Z"/>
      <path class="cls-3" d="M206.65,9.01c-.25-.03-.66-.04-1.04-.13-2.74-.69-3.63-3-3.27-5.13.29-1.68,1.17-2.98,2.89-3.49,1.84-.54,3.52-.23,4.93,1.15.4.39.68.85.85,1.37.41,1.29.41,2.58-.17,3.82-.8,1.7-2.22,2.41-4.19,2.42Z"/>
      <path class="cls-3" d="M333.3,114.04c-1.44.43-2.86.88-4.3,1.26-3.32.89-5.35,3.03-6.26,6.3-.33,1.19-.64,2.38-.95,3.57-.08.32-.15.64-.59.75-.44-1.55-.86-3.11-1.31-4.65-.37-1.26-.94-2.41-1.84-3.39-1.13-1.23-2.47-2.09-4.07-2.54-1.56-.44-3.11-.87-4.68-1.3.18-.38.48-.49.8-.58,1.13-.3,2.26-.59,3.39-.89,3.34-.9,5.56-2.95,6.5-6.32.35-1.25.73-2.49,1.11-3.73.05-.17.14-.4.4-.27.1.05.21.16.24.26.44,1.42.86,2.85,1.3,4.28.97,3.13,3.12,4.99,6.26,5.79,1,.26,2,.56,2.99.84.37.11.75.21,1.01.63Z"/>
      <path class="cls-3" d="M140.02,230.75c-1.44.43-2.86.88-4.3,1.26-3.32.89-5.35,3.03-6.26,6.3-.33,1.19-.64,2.38-.95,3.57-.08.32-.15.64-.59.75-.44-1.55-.86-3.11-1.31-4.65-.37-1.26-.94-2.41-1.84-3.39-1.13-1.23-2.47-2.09-4.07-2.54-1.56-.44-3.11-.87-4.68-1.3.18-.38.48-.49.8-.58,1.13-.3,2.26-.59,3.39-.89,3.34-.9,5.56-2.95,6.5-6.32.35-1.25.73-2.49,1.11-3.73.05-.17.14-.4.4-.27.1.05.21.16.24.26.44,1.42.86,2.85,1.3,4.28.97,3.13,3.12,4.99,6.26,5.79,1,.26,2,.56,2.99.84.37.11.75.21,1.01.63Z"/>
      <path class="cls-2" d="M51.83,21.86c1.94.01,3.27,1.29,3.29,3.17.02,1.95-1.35,3.38-3.25,3.33-2.17-.05-3.32-1.49-3.27-3.29.05-1.94,1.33-3.23,3.23-3.21Z"/>
      <path class="cls-2" d="M363.67,161.91c3.2.02,5.39,2.13,5.42,5.23.03,3.22-2.22,5.57-5.35,5.49-3.57-.09-5.47-2.45-5.39-5.42.08-3.2,2.18-5.32,5.32-5.29Z"/>
      <g>
        <path class="cls-1" d="M260.64,215.52c-8.04,6.25-16.58,11.1-26,14.32-10.56,3.62-21.36,5.42-32.57,4.08-13.89-1.65-23.14-12.85-24.11-26.45-.8-11.18,1.9-21.76,5.68-32.12,5.87-16.09,14.58-30.69,23.83-45,9.4-14.56,19.01-29,27.96-43.83,7.67-12.71,13.13-26.46,15.53-41.2.83-5.08.63-10.33.77-15.51.03-1.04-.39-2.15-.81-3.14-1.85-4.3-4.62-7.89-9.68-7.92-5.46-.04-8.71,3.59-10.92,8.19-2.12,4.41-2.04,9.23-2.24,13.95-.55,13.24-4.51,25.31-12.06,36.21-2.73,3.94-5.97,7.36-10.17,9.77-2.93,1.68-6.06,2.45-9.41,2.01-6.89-.91-10.83-5.26-10.96-12.28-.13-7.32,1.67-14.35,3.82-21.25,4.29-13.74,10.93-26.22,20.9-36.75,5.37-5.66,11.52-10.21,19.05-12.62,12.32-3.93,25.14.94,33.14,12.46,5.8,8.34,8.5,17.72,9.47,27.7,1.89,19.38-2.79,37.57-9.5,55.54-7.11,19.05-16.69,36.92-25.06,55.37-2.65,5.84-4.8,11.94-6.62,18.09-1.18,3.97-.62,8.16.83,12.15,3.33,9.2,12.23,12.51,20.77,7.69,6.51-3.67,10.51-9.48,12.92-16.27,2.81-7.89,4.85-16.05,7.64-23.95,1.83-5.17,4-10.3,6.78-15,1.7-2.88,4.53-5.37,7.38-7.23,5.08-3.32,11-2.05,14.78,2.7,4.72,5.93,5.75,12.68,2.83,19.52-2.51,5.89-5.86,11.45-9.05,17.03-3.1,5.43-6.32,10.85-6.51,17.26-.09,3.17.45,6.54,1.54,9.51,2.01,5.47,7.22,7.83,12.89,6.41,6.21-1.55,10.66-5.63,14.51-10.42,7.43-9.27,12.03-20.03,14.84-31.39,3.75-15.14,6.8-30.46,9.92-45.75,3.16-15.46,6.37-30.9,13.02-45.34,5-10.84,11.32-20.79,20.74-28.34,2.92-2.34,6.32-4.32,9.82-5.64,4.89-1.85,9.01,1.83,9.6,7.03,1.06,9.34-2.84,16.55-9.09,22.71-14.84,14.62-23.36,32.61-28.09,52.53-3.3,13.9-5.94,27.96-8.95,41.93-3.11,14.47-7.05,28.67-14.36,41.69-6.37,11.34-14.38,21.23-25.66,28.1-18.3,11.14-39.85,3-48.51-15.22-.16-.35-.33-.69-.64-1.34Z"/>
        <path class="cls-1" d="M60.24,236.09c-10.36.14-20.45-1.3-30.01-5.53-13.91-6.15-22.17-17.05-26.39-31.37-5.38-18.26-4.79-36.52-.23-54.81,4.51-18.12,11.89-35.12,20.28-51.71,9.01-17.8,19.44-34.7,32.55-49.83,9.77-11.28,20.33-21.64,33.47-29.04,6.36-3.58,13.16-5.85,20.34-7.13,12.07-2.16,23.1.37,32.54,8.09,8.69,7.1,12.59,16.9,13.77,27.91,1.68,15.61-3.1,29.59-11.39,42.37-5.78,8.91-12.33,17.35-19,25.62-2.12,2.62-5.51,4.68-8.73,5.86-7.13,2.61-13.8-1.94-14.64-9.5-.73-6.57,1.42-12.45,5.71-17.21,4.35-4.83,9.23-9.21,14.16-13.46,7.55-6.51,14.36-13.53,18.65-22.69,2.14-4.57,3.34-9.31,3.18-14.41-.4-12.59-10.26-16.58-19.41-15.27-6.66.95-11.85,4.84-16.62,9.31-12.48,11.68-22.74,25.09-30.77,40.17-8.35,15.67-15.65,31.77-19.84,49.11-2.81,11.62-4.24,23.35-3.13,35.36,1.31,14.15,8.57,23.83,21.3,27.62,7.37,2.19,14.77,1.93,22.07-.25,26.98-8.09,46.47-25.34,59.94-49.67,7.38-13.33,11.25-27.72,11.61-43.01.02-.93.2-1.85.36-2.77.57-3.31,2.35-5.35,4.95-5.74,2.5-.38,6.1,1.35,7.06,4,.87,2.42,1.71,5.21,1.34,7.65-2.64,17.09-6.48,33.9-13.84,49.65-9.37,20.05-20.11,39.36-34.91,55.97-17.58,19.73-39.53,31.55-65.96,34.62-.54.06-1.09.11-1.63.11-2.25.01-4.51,0-6.76,0Z"/>
      </g>
      <path class="cls-2" d="M159.76,208.55c0-4.52.95-10.46,5.8-10.29,2.42.09,4.29,2.26,3.88,4.66-.97,5.69-1.48,11.49.67,17.01,2.32,5.94,6.91,9.33,12.64,11.57,1.97.77,3.14,2.99,2.54,5.05-.51,1.74-2.28,3.03-4.09,2.98-.82-.02-1.61-.28-2.38-.57-11.72-4.45-17.94-15.21-18.94-27.34-.07-.85-.13-1.92-.13-3.08Z"/>
      <path class="cls-2" d="M176.3,184.14c0,3.45-2.37,5.89-5.73,5.92-3.54.03-6.1-2.4-6.03-5.83.09-4.15,2.98-5.91,5.75-5.92,3.56-.02,6.01,2.35,6.01,5.83Z"/>
      <path class="cls-5" d="M382.12,92.09s-13.28,21.09-15.1,45.86"/>
    </g>
  </g>
</svg>