<?xml version="1.0" encoding="UTF-8"?>
<svg id="Layer_2" data-name="Layer 2" xmlns="http://www.w3.org/2000/svg" viewBox="0 0 578 578">
  <defs>
    <style>
      .cls-1 {
        fill: #0f123e;
      }

      .cls-1, .cls-2, .cls-3, .cls-4, .cls-5 {
        stroke-width: 0px;
      }

      .cls-2 {
        fill: #fdbf14;
      }

      .cls-3 {
        fill: #fff;
      }

      .cls-6 {
        fill: none;
        stroke: #c71a8f;
        stroke-linecap: round;
        stroke-linejoin: round;
        stroke-width: 8.87px;
      }

      .cls-4 {
        fill: #41aee3;
      }

      .cls-5 {
        fill: #c71a8f;
      }
    </style>
  </defs>
  <g id="Capa_1" data-name="Capa 1">
    <circle id="BG" class="cls-3" cx="289" cy="289" r="289"/>
    <g>
      <path class="cls-5" d="M158.22,350.48c-2.22.12-4.75-.27-7.27-.67-.69-.11-1.39-.28-2.04-.54-2.47-.98-3.73-3.46-3.29-6.25.3-1.95,2.32-4.41,5.26-4.32.79.03,1.59.09,2.37.23,6.73,1.21,13.15.22,19.31-2.69,5.25-2.48,9.75-5.99,13.79-10.11,2.85-2.9,5.43-6.03,7.59-9.48,1.29-2.07,3.09-3.06,5.53-2.86,3.34.27,5.69,3.63,4.74,6.86-.2.67-.5,1.33-.88,1.91-6.73,10.2-15.15,18.56-26.32,23.84-5.82,2.75-11.95,4.2-18.77,4.1Z"/>
      <path class="cls-4" d="M85.64,439.89c-9.37-2.22-17.72-6.42-24.92-12.84-.77-.69-1.55-1.4-2.18-2.22-2.52-3.28-1.1-7.95,2.83-9.23,2.13-.69,4.12-.18,5.83,1.24,1.38,1.14,2.64,2.42,4.08,3.51,6.48,4.93,13.82,7.75,21.82,8.85,4.32.6,8.67.48,12.99-.2.75-.12,1.51-.17,2.24-.32,2.93-.6,6,2.09,6.46,4.71.55,3.08-1.09,5.89-4.13,6.85-.81.25-1.66.39-2.5.51-7.56,1.06-15.07.99-22.52-.86Z"/>
      <path class="cls-4" d="M299.38,147.45c-.3-.04-.79-.04-1.25-.16-3.3-.84-4.38-3.63-3.95-6.2.35-2.03,1.41-3.6,3.49-4.22,2.22-.65,4.25-.28,5.95,1.39.48.47.83,1.02,1.03,1.66.5,1.56.49,3.12-.21,4.61-.96,2.06-2.68,2.91-5.06,2.92Z"/>
      <path class="cls-4" d="M452.37,274.31c-1.75.51-3.46,1.06-5.19,1.52-4.01,1.07-6.47,3.66-7.56,7.61-.4,1.43-.77,2.88-1.14,4.31-.1.38-.18.77-.71.9-.53-1.87-1.04-3.75-1.58-5.62-.44-1.52-1.14-2.91-2.23-4.09-1.36-1.48-2.98-2.52-4.92-3.07-1.88-.53-3.76-1.05-5.66-1.57.22-.46.59-.6.97-.7,1.36-.36,2.73-.71,4.09-1.07,4.04-1.08,6.72-3.56,7.85-7.64.42-1.51.88-3.01,1.34-4.5.06-.2.17-.48.49-.33.12.06.26.19.3.31.53,1.72,1.04,3.45,1.57,5.17,1.18,3.78,3.77,6.03,7.56,7,1.21.31,2.41.67,3.62,1.02.45.13.91.26,1.22.76Z"/>
      <path class="cls-4" d="M218.9,415.3c-1.75.51-3.46,1.06-5.19,1.52-4.01,1.07-6.47,3.66-7.56,7.61-.4,1.43-.77,2.88-1.14,4.31-.1.38-.18.77-.71.9-.53-1.87-1.04-3.75-1.58-5.62-.44-1.52-1.14-2.91-2.23-4.09-1.36-1.48-2.98-2.52-4.92-3.07-1.88-.53-3.76-1.05-5.66-1.57.22-.46.59-.6.97-.7,1.36-.36,2.73-.71,4.09-1.07,4.04-1.08,6.72-3.56,7.85-7.64.42-1.51.88-3.01,1.34-4.5.06-.2.17-.48.49-.33.12.06.26.19.3.31.53,1.72,1.04,3.45,1.57,5.17,1.18,3.78,3.77,6.03,7.56,7,1.21.31,2.41.67,3.62,1.02.45.13.91.26,1.22.76Z"/>
      <path class="cls-2" d="M112.37,162.96c2.35.02,3.95,1.56,3.97,3.83.02,2.36-1.63,4.08-3.93,4.03-2.62-.06-4.01-1.8-3.95-3.98.06-2.34,1.6-3.9,3.9-3.88Z"/>
      <path class="cls-2" d="M489.05,332.14c3.87.03,6.51,2.57,6.55,6.31.04,3.88-2.68,6.73-6.47,6.63-4.32-.1-6.6-2.96-6.51-6.55.1-3.86,2.64-6.42,6.43-6.4Z"/>
      <g>
        <path class="cls-1" d="M364.6,396.9c-9.71,7.55-20.03,13.41-31.4,17.3-12.76,4.37-25.8,6.54-39.34,4.93-16.78-2-27.95-15.52-29.13-31.94-.97-13.5,2.3-26.29,6.87-38.8,7.09-19.44,17.61-37.07,28.79-54.36,11.36-17.58,22.96-35.03,33.77-52.94,9.26-15.35,15.86-31.96,18.76-49.76,1-6.13.76-12.48.93-18.74.03-1.26-.47-2.6-.98-3.79-2.24-5.2-5.58-9.53-11.7-9.57-6.6-.05-10.52,4.34-13.19,9.9-2.56,5.33-2.46,11.15-2.7,16.85-.67,15.99-5.45,30.58-14.57,43.73-3.3,4.76-7.21,8.89-12.29,11.8-3.54,2.03-7.32,2.97-11.37,2.43-8.32-1.09-13.08-6.35-13.23-14.83-.16-8.84,2.01-17.34,4.62-25.67,5.18-16.6,13.2-31.68,25.25-44.39,6.48-6.84,13.92-12.34,23.01-15.24,14.88-4.75,30.37,1.14,40.04,15.05,7,10.07,10.26,21.4,11.44,33.45,2.28,23.41-3.37,45.38-11.47,67.09-8.58,23.01-20.16,44.6-30.28,66.88-3.2,7.05-5.8,14.43-8,21.85-1.42,4.79-.75,9.86,1,14.68,4.03,11.11,14.77,15.11,25.08,9.29,7.87-4.44,12.69-11.45,15.61-19.65,3.39-9.53,5.85-19.39,9.23-28.93,2.21-6.24,4.83-12.44,8.19-18.12,2.05-3.48,5.48-6.48,8.92-8.74,6.13-4.01,13.28-2.47,17.85,3.26,5.7,7.16,6.94,15.32,3.42,23.58-3.04,7.12-7.08,13.83-10.93,20.58-3.74,6.56-7.64,13.11-7.86,20.84-.11,3.83.54,7.9,1.86,11.49,2.42,6.6,8.72,9.45,15.57,7.74,7.5-1.87,12.88-6.8,17.53-12.59,8.97-11.2,14.53-24.2,17.93-37.91,4.53-18.29,8.21-36.79,11.99-55.26,3.82-18.68,7.69-37.32,15.73-54.77,6.04-13.1,13.67-25.11,25.05-34.23,3.52-2.83,7.64-5.21,11.86-6.81,5.91-2.24,10.89,2.21,11.6,8.49,1.27,11.28-3.43,19.99-10.98,27.43-17.93,17.66-28.22,39.38-33.93,63.45-3.99,16.79-7.17,33.77-10.81,50.64-3.76,17.47-8.52,34.64-17.35,50.35-7.69,13.69-17.37,25.64-31,33.94-22.1,13.46-48.14,3.63-58.59-18.38-.2-.42-.4-.83-.77-1.61Z"/>
        <path class="cls-1" d="M122.53,421.74c-12.51.17-24.7-1.57-36.24-6.67-16.81-7.43-26.78-20.59-31.88-37.89-6.49-22.05-5.78-44.11-.28-66.21,5.45-21.89,14.36-42.43,24.5-62.46,10.88-21.51,23.48-41.92,39.32-60.19,11.8-13.62,24.56-26.14,40.43-35.08,7.68-4.33,15.9-7.06,24.57-8.61,14.59-2.61,27.9.44,39.3,9.77,10.49,8.58,15.2,20.41,16.64,33.71,2.03,18.86-3.74,35.74-13.75,51.18-6.98,10.76-14.89,20.96-22.96,30.95-2.56,3.17-6.65,5.65-10.55,7.07-8.61,3.15-16.67-2.34-17.68-11.48-.88-7.94,1.72-15.04,6.89-20.78,5.25-5.83,11.15-11.13,17.11-16.26,9.12-7.86,17.35-16.35,22.52-27.41,2.58-5.52,4.04-11.25,3.84-17.41-.48-15.21-12.39-20.03-23.45-18.45-8.05,1.15-14.31,5.84-20.08,11.24-15.08,14.11-27.47,30.3-37.17,48.52-10.08,18.92-18.9,38.37-23.97,59.33-3.39,14.04-5.12,28.21-3.78,42.72,1.58,17.1,10.36,28.79,25.72,33.36,8.9,2.65,17.84,2.34,26.66-.31,32.59-9.77,56.13-30.61,72.41-60,8.91-16.1,13.59-33.48,14.02-51.95.03-1.12.24-2.24.43-3.35.69-4,2.83-6.46,5.98-6.94,3.02-.45,7.37,1.63,8.53,4.83,1.05,2.92,2.07,6.3,1.61,9.24-3.18,20.64-7.83,40.95-16.72,59.98-11.32,24.22-24.29,47.54-42.17,67.61-21.23,23.83-47.75,38.12-79.68,41.82-.65.08-1.31.13-1.97.14-2.72.02-5.45,0-8.17,0Z"/>
      </g>
      <path class="cls-2" d="M242.75,388.48c.01-5.46,1.14-12.64,7.01-12.43,2.93.1,5.18,2.73,4.68,5.63-1.17,6.88-1.79,13.88.81,20.55,2.8,7.18,8.35,11.27,15.27,13.97,2.37.93,3.8,3.61,3.07,6.1-.62,2.11-2.75,3.66-4.94,3.6-.99-.03-1.95-.34-2.87-.69-14.16-5.38-21.67-18.37-22.88-33.02-.08-1.02-.16-2.32-.15-3.72Z"/>
      <path class="cls-2" d="M262.72,358.99c0,4.17-2.86,7.12-6.92,7.15-4.28.03-7.37-2.9-7.28-7.04.11-5.01,3.6-7.14,6.94-7.15,4.3-.02,7.26,2.84,7.26,7.05Z"/>
      <path class="cls-6" d="M511.34,247.8s-16.04,25.48-18.24,55.39"/>
    </g>
  </g>
</svg>