<?xml version="1.0" encoding="UTF-8"?>
<svg id="Layer_2" data-name="Layer 2" xmlns="http://www.w3.org/2000/svg" viewBox="0 0 848.45 540.63">
  <defs>
    <style>
      .cls-1 {
        fill: none;
        stroke: #c71a8f;
        stroke-linecap: round;
        stroke-linejoin: round;
        stroke-width: 19px;
      }

      .cls-2 {
        fill: #fdbf14;
      }

      .cls-2, .cls-3, .cls-4, .cls-5 {
        stroke-width: 0px;
      }

      .cls-3 {
        fill: #fff;
      }

      .cls-4 {
        fill: #41aee3;
      }

      .cls-5 {
        fill: #c71a8f;
      }
    </style>
  </defs>
  <g id="Capa_1" data-name="Capa 1">
    <g>
      <path class="cls-5" d="M192.31,379.33c-3.93.21-8.42-.47-12.9-1.19-1.23-.2-2.47-.5-3.62-.95-4.38-1.74-6.61-6.13-5.84-11.09.54-3.46,4.12-7.82,9.34-7.66,1.4.04,2.82.16,4.2.4,11.94,2.15,23.32.39,34.25-4.77,9.32-4.4,17.28-10.62,24.46-17.94,5.05-5.15,9.64-10.69,13.46-16.82,2.29-3.68,5.47-5.43,9.81-5.08,5.93.49,10.08,6.44,8.4,12.16-.35,1.18-.88,2.36-1.56,3.39-11.93,18.09-26.86,32.91-46.68,42.27-10.32,4.88-21.2,7.44-33.29,7.27Z"/>
      <path class="cls-4" d="M63.62,537.88c-16.61-3.94-31.42-11.39-44.19-22.77-1.37-1.22-2.75-2.49-3.87-3.94-4.47-5.81-1.95-14.11,5.01-16.36,3.77-1.22,7.31-.32,10.34,2.19,2.45,2.03,4.68,4.28,7.23,6.22,11.49,8.75,24.51,13.74,38.69,15.7,7.65,1.06,15.37.86,23.04-.35,1.32-.21,2.67-.3,3.98-.57,5.2-1.07,10.64,3.71,11.46,8.35.97,5.47-1.94,10.45-7.33,12.14-1.43.45-2.94.69-4.43.9-13.4,1.89-26.72,1.75-39.94-1.52Z"/>
      <path class="cls-4" d="M442.63,19.3c-.54-.07-1.41-.08-2.23-.29-5.86-1.49-7.78-6.43-7-11,.61-3.61,2.5-6.39,6.19-7.47,3.94-1.16,7.54-.49,10.56,2.46.85.83,1.46,1.82,1.83,2.94.89,2.77.87,5.53-.37,8.18-1.7,3.65-4.75,5.16-8.98,5.18Z"/>
      <path class="cls-4" d="M713.93,244.27c-3.09.91-6.13,1.88-9.21,2.7-7.11,1.9-11.47,6.48-13.41,13.49-.7,2.54-1.36,5.1-2.03,7.65-.18.68-.31,1.36-1.26,1.6-.93-3.32-1.84-6.65-2.81-9.97-.79-2.7-2.02-5.15-3.95-7.25-2.42-2.63-5.29-4.47-8.73-5.44-3.33-.94-6.67-1.86-10.03-2.79.4-.81,1.04-1.06,1.72-1.24,2.42-.64,4.84-1.26,7.25-1.9,7.16-1.92,11.91-6.31,13.92-13.54.74-2.67,1.56-5.33,2.37-7.99.11-.35.31-.85.86-.59.22.1.46.34.52.56.95,3.05,1.84,6.11,2.79,9.16,2.09,6.7,6.69,10.69,13.41,12.41,2.15.55,4.28,1.19,6.41,1.8.8.23,1.61.46,2.17,1.34Z"/>
      <path class="cls-4" d="M299.93,494.27c-3.09.91-6.13,1.88-9.21,2.7-7.11,1.9-11.47,6.48-13.41,13.49-.7,2.54-1.36,5.1-2.03,7.65-.18.68-.31,1.36-1.26,1.6-.93-3.32-1.84-6.65-2.81-9.97-.79-2.7-2.02-5.15-3.95-7.25-2.42-2.63-5.29-4.47-8.73-5.44-3.33-.94-6.67-1.86-10.03-2.79.4-.81,1.04-1.06,1.72-1.24,2.42-.64,4.84-1.26,7.25-1.9,7.16-1.92,11.91-6.31,13.92-13.54.74-2.67,1.56-5.33,2.37-7.99.11-.35.31-.85.86-.59.22.1.46.34.52.56.95,3.05,1.84,6.11,2.79,9.16,2.09,6.7,6.69,10.69,13.41,12.41,2.15.55,4.28,1.19,6.41,1.8.8.23,1.61.46,2.17,1.34Z"/>
      <path class="cls-2" d="M111.01,46.81c4.17.03,7.01,2.77,7.05,6.79.04,4.18-2.88,7.24-6.96,7.14-4.65-.11-7.11-3.19-7.01-7.05.11-4.16,2.84-6.91,6.92-6.88Z"/>
      <path class="cls-2" d="M778.97,346.81c6.86.05,11.54,4.56,11.61,11.19.07,6.89-4.75,11.93-11.47,11.77-7.65-.19-11.71-5.26-11.54-11.62.18-6.85,4.68-11.39,11.4-11.34Z"/>
      <g>
        <path class="cls-3" d="M558.28,461.65c-17.22,13.39-35.52,23.78-55.68,30.68-22.63,7.75-45.75,11.6-69.76,8.74-29.76-3.54-49.56-27.51-51.65-56.65-1.72-23.94,4.08-46.61,12.17-68.81,12.57-34.47,31.24-65.73,51.05-96.4,20.14-31.18,40.71-62.11,59.89-93.88,16.43-27.22,28.12-56.68,33.27-88.24,1.78-10.88,1.34-22.13,1.64-33.22.06-2.23-.83-4.61-1.74-6.72-3.97-9.22-9.9-16.89-20.74-16.97-11.7-.08-18.66,7.7-23.39,17.55-4.54,9.45-4.37,19.76-4.79,29.88-1.18,28.36-9.66,54.22-25.84,77.55-5.85,8.45-12.78,15.76-21.79,20.93-6.27,3.6-12.98,5.26-20.15,4.32-14.75-1.94-23.2-11.26-23.47-26.3-.28-15.67,3.57-30.74,8.18-45.52,9.19-29.44,23.4-56.17,44.77-78.72,11.49-12.13,24.68-21.88,40.8-27.02,26.38-8.43,53.85,2.02,71,26.68,12.42,17.86,18.2,37.95,20.28,59.32,4.05,41.52-5.98,80.48-20.35,118.97-15.22,40.8-35.74,79.09-53.69,118.6-5.68,12.5-10.28,25.58-14.19,38.75-2.52,8.5-1.32,17.48,1.78,26.03,7.14,19.7,26.19,26.79,44.48,16.48,13.95-7.87,22.5-20.3,27.68-34.85,6.02-16.9,10.38-34.39,16.36-51.31,3.91-11.07,8.57-22.07,14.52-32.14,3.64-6.17,9.71-11.5,15.81-15.49,10.87-7.11,23.56-4.39,31.66,5.78,10.11,12.69,12.31,27.17,6.06,41.81-5.39,12.62-12.56,24.52-19.39,36.49-6.64,11.63-13.54,23.25-13.94,36.96-.19,6.79.96,14.01,3.3,20.38,4.3,11.71,15.46,16.76,27.62,13.73,13.29-3.32,22.84-12.06,31.08-22.33,15.91-19.85,25.76-42.91,31.79-67.23,8.04-32.43,14.56-65.24,21.26-97.99,6.77-33.12,13.64-66.18,27.9-97.12,10.71-23.23,24.24-44.53,44.42-60.71,6.25-5.01,13.55-9.24,21.03-12.08,10.48-3.96,19.3,3.91,20.56,15.06,2.26,20-6.08,35.45-19.47,48.65-31.79,31.31-50.04,69.84-60.17,112.51-7.07,29.77-12.72,59.88-19.16,89.8-6.67,30.99-15.11,61.42-30.76,89.29-13.64,24.28-30.8,45.47-54.96,60.19-39.19,23.87-85.36,6.43-103.9-32.59-.35-.74-.71-1.48-1.37-2.86Z"/>
        <path class="cls-3" d="M129.03,505.7c-22.18.31-43.8-2.79-64.27-11.84-29.8-13.17-47.5-36.52-56.53-67.2-11.52-39.1-10.25-78.22-.5-117.41,9.66-38.82,25.46-75.23,43.44-110.76,19.3-38.14,41.64-74.33,69.73-106.74,20.93-24.15,43.56-46.36,71.7-62.21,13.63-7.67,28.19-12.52,43.57-15.28,25.86-4.63,49.48.78,69.7,17.32,18.61,15.22,26.96,36.19,29.5,59.78,3.6,33.44-6.63,63.37-24.39,90.75-12.38,19.08-26.41,37.16-40.71,54.87-4.54,5.62-11.8,10.02-18.71,12.54-15.27,5.59-29.57-4.15-31.36-20.36-1.56-14.08,3.05-26.68,12.22-36.86,9.31-10.34,19.77-19.73,30.34-28.84,16.17-13.94,30.77-28.99,39.94-48.61,4.58-9.79,7.16-19.94,6.81-30.87-.86-26.97-21.97-35.52-41.58-32.72-14.27,2.04-25.38,10.36-35.61,19.94-26.74,25.03-48.71,53.73-65.91,86.04-17.88,33.56-33.52,68.05-42.5,105.2-6.02,24.9-9.08,50.02-6.7,75.75,2.81,30.32,18.36,51.05,45.62,59.16,15.78,4.7,31.64,4.14,47.28-.55,57.79-17.32,99.54-54.28,128.4-106.39,15.81-28.55,24.11-59.37,24.86-92.12.05-1.98.42-3.97.76-5.94,1.23-7.09,5.02-11.46,10.61-12.3,5.35-.81,13.08,2.89,15.12,8.56,1.87,5.18,3.67,11.17,2.86,16.39-5.65,36.6-13.89,72.62-29.65,106.36-20.07,42.95-43.07,84.3-74.79,119.89-37.65,42.26-84.67,67.59-141.29,74.17-1.16.13-2.33.24-3.49.24-4.83.03-9.66.01-14.49.01Z"/>
      </g>
      <path class="cls-2" d="M342.21,446.71c.02-9.69,2.03-22.41,12.43-22.04,5.19.18,9.18,4.84,8.31,9.99-2.08,12.2-3.18,24.62,1.44,36.44,4.96,12.73,14.8,19.99,27.08,24.78,4.21,1.64,6.74,6.4,5.44,10.82-1.09,3.73-4.88,6.49-8.77,6.39-1.75-.05-3.45-.61-5.09-1.23-25.11-9.54-38.43-32.58-40.57-58.55-.15-1.82-.28-4.11-.27-6.6Z"/>
      <path class="cls-2" d="M377.62,394.42c0,7.39-5.07,12.62-12.27,12.68-7.59.06-13.08-5.15-12.91-12.49.2-8.89,6.39-12.66,12.31-12.69,7.62-.04,12.88,5.04,12.87,12.5Z"/>
      <path class="cls-1" d="M818.5,197.25s-28.45,45.18-32.35,98.23"/>
    </g>
  </g>
</svg>